<?xml version="1.0" encoding="UTF-8" standalone="no"?>
<!-- на основе CreativeCommoms+AdobeIllustrator -->

<!-- авторский знак Общественное достояние -->

<svg
   xmlns:dc="http://purl.org/dc/elements/1.1/"
   xmlns:cc="http://creativecommons.org/ns#"
   xmlns:rdf="http://www.w3.org/1999/02/22-rdf-syntax-ns#"
   xmlns:svg="http://www.w3.org/2000/svg"
   xmlns="http://www.w3.org/2000/svg"
   xmlns:sodipodi="http://sodipodi.sourceforge.net/DTD/sodipodi-0.dtd"
   xmlns:inkscape="http://www.inkscape.org/namespaces/inkscape"
   sodipodi:docname="e803.svg"
   inkscape:version="0.91 r13725"
   id="svg2"
   version="1.1"
   height="24"
   width="14.063">
  <g
     transform="translate(0.54589844,0.0802368)"
  >
    <path
       d="m 6.3095703,5.2399195 0.2929688,0 q 0.058594,0.5859375 0.3515625,0.9375 0.2929687,0.4101562 0.9375,0.4101562 l 3.2812504,0 q 0.878906,0 1.289062,0.2929688 0.46875,0.2929687 0.703125,0.7617187 0.351563,0.6445313 0.351563,0.9375 l -0.234375,0 Q 13.047852,7.9498804 12.710938,7.6276148 12.286133,7.2907007 11.583008,7.2907007 l -3.5742189,0 q -0.7470704,0 -1.0839844,-0.4833984 Q 6.6318359,6.4703882 6.4853516,5.7672632 6.3242187,6.4703882 6.03125,6.8073023 5.6943359,7.2907007 4.9619141,7.2907007 l -3.6328125,0 q -0.6884766,0 -1.08398441,0.3369141 -0.3515625,0.3222656 -0.55664063,0.9521484 l -0.234375,0 q 0,-0.2929687 0.3515625,-0.9375 0.234375,-0.46875 0.703125,-0.7617187 0.3515625,-0.2929688 1.23046874,-0.2929688 l 3.3398438,0 q 0.5859375,0 0.8789062,-0.4101562 0.2929688,-0.3515625 0.3515625,-0.9375 z"
    />
  </g>
  <g
     transform="translate(-0.20410156,0.510081)"
  >
    <path
       d="m 0.20410156,20.091482 0.234375,0 q 0.20507813,0.673828 0.55664063,1.025391 0.39550781,0.380859 1.08398441,0.380859 l 3.6328125,0 q 0.7324218,0 1.0693359,0.424805 0.2929687,0.351562 0.4541016,1.040039 0.1464843,-0.688477 0.4394531,-1.040039 0.3369141,-0.424805 1.0839844,-0.424805 l 3.5742189,0 q 0.703125,0 1.12793,-0.380859 0.336914,-0.351563 0.571289,-1.025391 l 0.234375,0 q 0,0.292969 -0.351563,0.9375 -0.234375,0.46875 -0.703125,0.820312 -0.410156,0.351563 -1.289062,0.351563 l -3.2812504,0 q -0.6445313,0 -0.9375,0.292969 -0.2929688,0.410156 -0.3515625,0.996093 l -0.2929688,0 Q 7.0009766,22.903982 6.7080078,22.493826 6.4150391,22.200857 5.8291016,22.200857 l -3.3398438,0 q -0.8789062,0 -1.2304687,-0.351563 -0.46875004,-0.351562 -0.70312504,-0.820312 -0.3515625,-0.644531 -0.3515625,-0.9375 z"
    />
  </g>
</svg>
