<?xml version="1.0" encoding="UTF-8" standalone="no"?>
<!-- на основе CreativeCommoms+AdobeIllustrator -->
<!-- авторский знак Общественное достояние -->
<svg width="12" height="12" version="1.1" xmlns="http://www.w3.org/2000/svg">
<path d="M 6.0000002,-1.9e-7 C 2.686375,-1.9e-7 0,2.6863799 0,6 0,9.3132478 2.686375,12 6.0000002,12 9.3136256,12 12,9.3132478 12,6 12,2.6863439 9.3136256,-1.9e-7 6.0000002,-1.9e-7 Z m 0,10.87494019 C 3.3117814,10.87494 1.124875,8.6878438 1.124875,6 c 0,-0.562716 0.096969,-1.103088 0.2733126,-1.606068 l 1.9066563,0.849036 c -0.051344,0.255156 -0.079188,0.521316 -0.079188,0.796224 0,2.3953078 1.787875,3.0702118 2.91275,3.0702118 0.6633439,0 1.2374376,-0.214128 1.6868439,-0.528252 0.085406,-0.0612 0.1627812,-0.122808 0.233875,-0.185496 l -0.8746876,-1.06278 c -0.025656,0.02928 -0.052438,0.05724 -0.079906,0.08208 -0.3402187,0.322584 -0.7141563,0.322584 -0.7977188,0.322584 -0.9151875,0 -1.2982814,-0.9655918 -1.3034063,-1.7390878 l 5.2549069,2.3395918 c 0.0062,0.0011 0.01134,0.0011 0.01647,0.0024 C 9.445592,9.849936 7.8403102,10.87494 5.9999978,10.87494 Z M 10.697875,7.2456598 5.2780001,4.826532 c 0.1955626,-0.35412 0.5068126,-0.62028 0.9725626,-0.62028 0.27,0 0.4840937,0.0894 0.6527188,0.202368 0.069999,0.05064 0.130875,0.10116 0.1821875,0.152136 L 8.0624376,3.5551919 C 7.4062502,2.9909999 6.660219,2.8901879 6.1723126,2.8901879 c -1.1465,0 -1.9577812,0.495624 -2.436,1.2482521 L 1.9238751,3.3300959 C 2.7961877,2.0030279 4.2971877,1.1246878 6.0000002,1.1246878 8.688188,1.1246878 10.875313,3.3114359 10.875313,6 c 0,0.435156 -0.05828,0.856344 -0.165719,1.2581518 -0.0044,-0.0048 -0.0073,-0.0084 -0.01173,-0.01248 z" />
</svg>
