<?xml version="1.0" encoding="UTF-8" standalone="no"?>
<!-- на основе CreativeCommoms+AdobeIllustrator -->
<!-- авторский знак перевода в Общественное достояние -->
<svg width="12" height="12" version="1.1" xmlns="http://www.w3.org/2000/svg">
<circle cy="6" cx="6" r="5.5" style="fill:none;stroke:#000000;stroke-width:1;stroke-opacity:1" />
<path d="M 6.0123235,2.5000001 C 4.0048588,2.5000001 3.5,4.3942182 3.5,5.9999999 3.5,7.6059717 4.0046688,9.5 6.0123235,9.5 8.0195982,9.5 8.524457,7.6059717 8.524457,5.9999999 8.524457,4.3942182 8.0195982,2.5 6.0123235,2.5 Z m 0,1.3198154 c 0.081514,0 0.1558089,0.012541 0.2257329,0.029831 0.1445983,0.124647 0.2152823,0.2966068 0.076575,0.5364005 L 4.9777149,6.8428876 C 4.9366726,6.5320298 4.9307817,6.2272524 4.9307817,5.9998095 c 0,-0.7072205 0.049023,-2.1799945 1.0815418,-2.1799945 z m 1.0005972,1.1326547 c 0.070874,0.3769815 0.080945,0.7706839 0.080945,1.0475297 0,0.7074105 -0.049023,2.1803747 -1.0811618,2.1803747 -0.081325,0 -0.1561889,-0.00855 -0.2257328,-0.025842 -0.013301,-0.00399 -0.025461,-0.00817 -0.038382,-0.01273 -0.021281,-0.00608 -0.043703,-0.012921 -0.063844,-0.020901 C 5.4548317,8.0230455 5.3100434,7.8461455 5.5186753,7.5331975 L 7.0129207,4.9524702 Z" />
</svg>
