<?xml version="1.0" encoding="UTF-8" standalone="no"?>
<!-- авторский знак Библиотечный экземпляр -->
<svg width="100" height="16" version="1.1" xmlns="http://www.w3.org/2000/svg">
  <rect
     id="rect6"
     ry="7.9424958"
     rx="9.8892183"
     height="14.892179"
     width="98.892181"
     y="0.55389297"
     x="0.55391037"
     style="fill:none;stroke:#000000;stroke-width:1.10782075;stroke-opacity:1" />
  <path
     style="fill:none;stroke:#000000;stroke-width:1;stroke-opacity:1"
     d="m 53.999998,8 a 5.5,5.5 0 0 1 -5.5,5.5 5.5,5.5 0 0 1 -5.5,-5.5 5.5,5.5 0 0 1 5.5,-5.5 5.5,5.5 0 0 1 5.5,5.5 z" />
  <path
     d="m 51.13058,4.1443 0.168335,2.5034 -0.168335,0 Q 50.793908,5.5236 50.169437,5.0295 49.544966,4.5353 48.670706,4.5353 q -0.733074,0 -1.324964,0.3747 -0.59189,0.3693 -0.933992,1.1838 -0.336671,0.8145 -0.336671,2.0254 0,0.9992 0.320381,1.7323 0.32038,0.733 0.961142,1.124 0.646192,0.391 1.47158,0.391 0.716784,0 1.265232,-0.3041 0.548449,-0.3095 1.205501,-1.2218 l 0.168336,0.1086 q -0.553879,0.9829 -1.292384,1.439 -0.738505,0.4561 -1.753949,0.4561 -1.829972,0 -2.834556,-1.3575 -0.749365,-1.01 -0.749365,-2.3784 0,-1.1023 0.494147,-2.0255 0.494146,-0.9231 1.357546,-1.4281 0.868829,-0.5105 1.895134,-0.5105 0.798236,0 1.574753,0.391 0.228067,0.1195 0.325811,0.1195 0.146615,0 0.255218,-0.1032 0.141185,-0.1466 0.200917,-0.4073 l 0.190057,0 z" />
  <path
     style="font-style:normal;font-variant:normal;font-weight:normal;font-stretch:normal;font-size:medium;line-height:100%;font-family:'Times New Roman';-inkscape-font-specification:'Times New Roman, Normal';text-align:start;letter-spacing:0px;word-spacing:0px;writing-mode:lr-tb;text-anchor:start;fill:#000000;fill-opacity:1;stroke:none;stroke-width:1px;stroke-linecap:butt;stroke-linejoin:miter;stroke-opacity:1"
     d="m 10.823127,9.7056 -3.6043896,0 -0.631626,1.4692 q -0.233427,0.5423 -0.233427,0.8101 0,0.2128 0.1991,0.3776 0.205965,0.1579 0.878784,0.206 l 0,0.254 -2.93157,0 0,-0.254 q 0.583568,-0.103 0.755205,-0.2678 0.350141,-0.3295 0.775802,-1.3388 L 9.3058514,3.3 l 0.240292,0 3.2405176,7.7443 q 0.391334,0.9337 0.707147,1.2152 0.322679,0.2746 0.892515,0.309 l 0,0.254 -3.673044,0 0,-0.254 q 0.556106,-0.027 0.74834,-0.1854 0.199099,-0.1579 0.199099,-0.3845 0,-0.3021 -0.27462,-0.9543 L 10.823127,9.7056 Z M 10.630893,9.1975 9.0518274,5.4352 l -1.620259,3.7623 3.1993246,0 z" />
  <path
     style="font-style:normal;font-variant:normal;font-weight:normal;font-stretch:normal;font-size:medium;line-height:100%;font-family:'Times New Roman';-inkscape-font-specification:'Times New Roman, Normal';text-align:start;letter-spacing:0px;word-spacing:0px;writing-mode:lr-tb;text-anchor:start;fill:#000000;fill-opacity:1;stroke:none;stroke-width:1px;stroke-linecap:butt;stroke-linejoin:miter;stroke-opacity:1"
     d="m 15.509071,10.9906 q 0.322679,0 0.542375,0.2265 0.219696,0.2197 0.219696,0.5356 0,0.3158 -0.226562,0.5423 -0.219696,0.2197 -0.535509,0.2197 -0.315813,0 -0.542375,-0.2197 Q 14.747,12.0685 14.747,11.7527 q 0,-0.3227 0.219696,-0.5424 0.226562,-0.2197 0.542375,-0.2197 z" />
  <path
     d="m 16.309885,6.0337 5.437479,0 0.27462,1.7026 -0.308948,0 Q 21.630646,7.2214 21.438416,6.9399 21.246182,6.6585 20.999024,6.5692 20.751866,6.4802 20.154567,6.4802 l -0.54924,0 0,4.3665 q 0,0.7003 0.08239,0.8925 0.08925,0.1854 0.281485,0.2472 0.192234,0.062 0.878785,0.082 l 0,0.254 -3.419021,0 0,-0.254 q 0.659088,-0.014 0.844457,-0.2129 0.192234,-0.1991 0.192234,-1.0092 l 0,-4.3665 -0.562971,0 q -0.590434,0 -0.803264,0.076 -0.212831,0.069 -0.411931,0.3432 -0.192234,0.2678 -0.329544,0.8376 l -0.308947,0 0.260889,-1.7026 z" />
  <path
     style="font-style:normal;font-variant:normal;font-weight:normal;font-stretch:normal;font-size:medium;line-height:100%;font-family:'Times New Roman';-inkscape-font-specification:'Times New Roman, Normal';text-align:start;letter-spacing:0px;word-spacing:0px;writing-mode:lr-tb;text-anchor:start;fill:#000000;fill-opacity:1;stroke:none;stroke-width:1px;stroke-linecap:butt;stroke-linejoin:miter;stroke-opacity:1"
     d="m 23.614781,8.4023 q -0.0069,1.4006 0.679685,2.197 0.686551,0.7963 1.613394,0.7963 0.617895,0 1.071018,-0.3364 0.459989,-0.3432 0.768937,-1.1671 l 0.21283,0.1373 q -0.144175,0.9406 -0.837591,1.7164 -0.693416,0.7689 -1.736973,0.7689 -1.132808,0 -1.942937,-0.8788 -0.803264,-0.8856 -0.803264,-2.3754 0,-1.6134 0.82386,-2.5128 0.830726,-0.9062 2.080248,-0.9062 1.057288,0 1.736972,0.7002 0.679685,0.6935 0.679685,1.8606 l -4.345864,0 z m 0,-0.3982 2.910974,0 Q 26.491425,7.3999 26.381579,7.1528 26.209942,6.7683 25.866667,6.5486 25.530257,6.3289 25.15952,6.3289 q -0.569837,0 -1.02296,0.4463 -0.446258,0.4394 -0.521779,1.2289 z" />
  <path
     style="font-style:normal;font-variant:normal;font-weight:normal;font-stretch:normal;font-size:medium;line-height:100%;font-family:'Times New Roman';-inkscape-font-specification:'Times New Roman, Normal';text-align:start;letter-spacing:0px;word-spacing:0px;writing-mode:lr-tb;text-anchor:start;fill:#000000;fill-opacity:1;stroke:none;stroke-width:1px;stroke-linecap:butt;stroke-linejoin:miter;stroke-opacity:1"
     d="m 31.306083,3.0129 7.682499,0 0,0.254 q -0.865054,0.027 -1.105346,0.2746 -0.240293,0.2472 -0.240293,1.1671 l 0,5.156 q 0,1.4967 0.171638,1.8537 0.171637,0.3502 1.112211,0.3502 l 0,2.9315 -0.233427,0 Q 38.4874,13.9839 38.027411,13.3592 37.574288,12.7413 36.99072,12.5285 q -0.576702,-0.206 -1.386831,-0.206 l -2.375465,0 q -1.558469,0 -2.293078,0.8444 Q 30.207603,14.0114 30.063427,15 L 29.83,15 l 0,-2.9315 q 1.105346,-0.096 1.798762,-1.3251 0.693416,-1.2289 0.96117,-3.0139 0.267755,-1.7919 0.267755,-2.9385 0,-0.6865 -0.171638,-1.0092 -0.171637,-0.3227 -0.41193,-0.4051 -0.233427,-0.082 -0.968036,-0.1098 l 0,-0.254 z m 2.238154,0.508 Q 33.3726,7.5922 32.892015,9.233 32.411429,10.8739 31.6013,11.8144 l 3.446483,0 q 0.919977,0 1.09848,-0.1579 0.185369,-0.1647 0.185369,-1.0504 l 0,-7.0852 -2.787395,0 z" />
  <rect
     id="rect22"
     y="0.9999826"
     x="48"
     height="1"
     width="1"
     style="opacity:1;fill:#000000;fill-opacity:1;stroke:none;stroke-width:0.60000002;stroke-miterlimit:4;stroke-dasharray:none;stroke-opacity:1" />
  <rect
     id="rect24"
     y="13.999983"
     x="48"
     height="1"
     width="1"
     style="opacity:1;fill:#000000;fill-opacity:1;stroke:none;stroke-width:0.60000002;stroke-miterlimit:4;stroke-dasharray:none;stroke-opacity:1" />
  <path
     style="font-style:normal;font-variant:normal;font-weight:normal;font-stretch:normal;font-size:13.75px;line-height:100%;font-family:'Times New Roman';-inkscape-font-specification:'Times New Roman, Normal';text-align:start;letter-spacing:0px;word-spacing:0px;writing-mode:lr-tb;text-anchor:start;fill:#000000;fill-opacity:1;stroke:none;stroke-width:1px;stroke-linecap:butt;stroke-linejoin:miter;stroke-opacity:1"
     d="m 64.974683,3.530008 0.09399,1.987305 -0.241699,0 Q 64.61213,4.550516 64.162301,4.288675 63.719185,4.026834 62.577828,4.026834 l -1.530762,0 0,3.605347 0.362549,0 q 1.671753,0 2.457276,0.214844 0.785522,0.20813 1.275634,0.805664 0.496826,0.597534 0.496826,1.436768 0,1.013793 -0.751953,1.779174 -0.751953,0.765381 -2.591552,0.765381 l -3.85376,0 0,-0.248413 q 0.845947,-0.02686 1.080932,-0.268555 0.234986,-0.241699 0.234986,-1.141357 l 0,-5.787354 q 0,-0.691528 -0.100708,-0.933227 Q 59.563306,4.013407 59.341744,3.912699 59.120186,3.811991 58.522652,3.778421 l 0,-0.248413 6.452027,0 z m -3.927613,8.560181 q 0.590821,0.09399 0.9198,0.09399 0.825806,0 1.490479,-0.550537 0.671386,-0.550537 0.671386,-1.524048 0,-1.00708 -0.698242,-1.490478 -0.698242,-0.490113 -1.772461,-0.490113 -0.302124,0 -0.610962,0.05371 l 0,3.907471 z" />
  <path
     style="font-style:normal;font-variant:normal;font-weight:normal;font-stretch:normal;font-size:13.75px;line-height:100%;font-family:'Times New Roman';-inkscape-font-specification:'Times New Roman, Normal';text-align:start;letter-spacing:0px;word-spacing:0px;writing-mode:lr-tb;text-anchor:start;fill:#000000;fill-opacity:1;stroke:none;stroke-width:1px;stroke-linecap:butt;stroke-linejoin:miter;stroke-opacity:1"
     d="M 68.445752,10.740702 71.104443,7.66575 Q 71.091013,7.148783 70.909741,6.947367 70.728467,6.745951 70.285352,6.739237 l 0,-0.255127 2.860107,0 0,0.255127 q -0.449829,0 -0.604248,0.09399 -0.154419,0.08728 -0.241699,0.221558 -0.08728,0.134277 -0.08728,0.872802 l 0,3.26294 q 0,0.71167 0.07385,0.852661 0.07385,0.134277 0.228271,0.241699 0.161133,0.100708 0.631104,0.100708 l 0,0.248413 -2.974243,0 0,-0.248413 q 0.557251,0 0.745239,-0.201416 0.187988,-0.20813 0.187988,-0.993652 l 0,-2.893677 -2.658691,3.081665 q 0.01343,0.570679 0.161133,0.785522 0.147705,0.214844 0.637817,0.221558 l 0,0.248413 -2.839966,0 0,-0.248413 q 0.597535,0 0.765381,-0.214844 0.167847,-0.221557 0.167847,-0.980224 l 0,-3.26294 q 0,-0.718384 -0.07385,-0.845947 Q 67.190262,6.947363 67.035841,6.846655 66.881422,6.739233 66.404737,6.739233 l 0,-0.255127 2.974243,0 0,0.255127 q -0.449829,0 -0.604248,0.09399 -0.154419,0.08728 -0.241699,0.221558 -0.08728,0.134277 -0.08728,0.872802 l 0,2.813111 z" />
  <path
     style="font-style:normal;font-variant:normal;font-weight:normal;font-stretch:normal;font-size:13.75px;line-height:100%;font-family:'Times New Roman';-inkscape-font-specification:'Times New Roman, Normal';text-align:start;letter-spacing:0px;word-spacing:0px;writing-mode:lr-tb;text-anchor:start;fill:#000000;fill-opacity:1;stroke:none;stroke-width:1px;stroke-linecap:butt;stroke-linejoin:miter;stroke-opacity:1"
     d="m 74.461377,8.243143 q 0.772095,-1.940308 2.60498,-1.940308 1.282349,0 2.094727,0.960083 0.819092,0.960083 0.819092,2.195435 0,1.275635 -0.825806,2.322998 -0.825806,1.040649 -2.235718,1.040649 -1.436767,0 -2.18872,-1.188354 -0.751953,-1.195068 -0.751953,-2.907105 0,-1.329345 0.389404,-2.477417 0.389404,-1.154785 0.819092,-1.725463 0.429687,-0.570679 0.993652,-0.83252 0.563965,-0.261841 1.994019,-0.275268 1.027221,-0.01343 1.242065,-0.06042 0.214844,-0.047 0.409546,-0.268555 l 0.261841,0 q -0.221558,0.657959 -0.53711,0.939941 -0.315551,0.281983 -0.6781,0.382691 -0.362549,0.09399 -1.295777,0.120849 -1.00708,0.02686 -1.396484,0.154419 -0.38269,0.12085 -0.79895,0.604248 -0.41626,0.476685 -0.651245,1.255494 -0.228272,0.778808 -0.268555,1.698608 z m 2.376709,-1.483765 q -0.671387,0 -1.101074,0.557251 -0.429688,0.557251 -0.429688,1.75232 0,1.618042 0.577393,2.450561 0.577392,0.83252 1.336059,0.83252 0.698243,0 1.094361,-0.577393 0.402832,-0.584106 0.402832,-1.859741 0,-1.356201 -0.523682,-2.255859 -0.523682,-0.899659 -1.356201,-0.899659 z" />
  <path
     style="font-style:normal;font-variant:normal;font-weight:normal;font-stretch:normal;font-size:13.75px;line-height:100%;font-family:'Times New Roman';-inkscape-font-specification:'Times New Roman, Normal';text-align:start;letter-spacing:0px;word-spacing:0px;writing-mode:lr-tb;text-anchor:start;fill:#000000;fill-opacity:1;stroke:none;stroke-width:1px;stroke-linecap:butt;stroke-linejoin:miter;stroke-opacity:1"
     d="m 81.175244,6.48411 5.498657,0 0,0.255127 q -0.456543,0 -0.610962,0.09399 -0.147705,0.08728 -0.234985,0.221558 -0.08728,0.134277 -0.08728,0.872802 l 0,3.26294 q 0,0.71167 0.07385,0.852661 0.07385,0.134277 0.228272,0.241699 0.161133,0.100708 0.631103,0.100708 l 0,0.248413 -3.182373,0 0,-0.248413 q 0.516968,0 0.71167,-0.05371 0.201416,-0.05371 0.315552,-0.255127 0.114136,-0.20813 0.114136,-0.88623 l 0,-4.27002 -2.04773,0 0,2.591553 q 0,1.470337 -0.134277,2.067871 -0.127564,0.59082 -0.516968,0.879517 -0.38269,0.281982 -0.879516,0.281982 -0.859375,0 -0.859375,-0.71167 0,-0.241699 0.134277,-0.396118 0.140991,-0.154419 0.362549,-0.154419 0.234985,0 0.436401,0.194702 0.261841,0.255127 0.396118,0.255127 0.302124,0 0.436402,-0.50354 0.140991,-0.510254 0.140991,-1.779175 l 0,-1.356201 q 0,-1.047363 -0.154419,-1.275635 -0.147705,-0.228271 -0.772095,-0.275268 l 0,-0.255127 z" />
  <path
     style="font-style:normal;font-variant:normal;font-weight:normal;font-stretch:normal;font-size:13.75px;line-height:100%;font-family:'Times New Roman';-inkscape-font-specification:'Times New Roman, Normal';text-align:start;letter-spacing:0px;word-spacing:0px;writing-mode:lr-tb;text-anchor:start;fill:#000000;fill-opacity:1;stroke:none;stroke-width:1px;stroke-linecap:butt;stroke-linejoin:miter;stroke-opacity:1"
     d="m 90.426953,6.302835 q 1.396484,0 2.242432,1.060791 0.718384,0.906372 0.718384,2.081299 0,0.825806 -0.396119,1.671753 -0.396118,0.845947 -1.09436,1.275635 -0.691528,0.429687 -1.544189,0.429687 -1.389771,0 -2.208863,-1.107788 -0.691528,-0.933227 -0.691528,-2.094726 0,-0.845947 0.41626,-1.678467 0.422973,-0.839233 1.107788,-1.235352 0.684814,-0.402832 1.450195,-0.402832 z m -0.20813,0.436402 q -0.355835,0 -0.718384,0.214844 -0.355835,0.208129 -0.577392,0.738525 -0.221558,0.530395 -0.221558,1.362915 0,1.342773 0.530396,2.316284 0.537109,0.973511 1.409912,0.973511 0.651245,0 1.074219,-0.537109 0.422973,-0.53711 0.422973,-1.846314 0,-1.638184 -0.704956,-2.578125 -0.476684,-0.644531 -1.21521,-0.644531 z" />
</svg>
