<?xml version="1.0" encoding="UTF-8" standalone="no"?>
<!-- Затерянный мир 13-31 -->
<?xml-stylesheet type="text/css" href="svg.css"?>
<svg x="0" y="10" width="450" height="200" baseProfile="full" version="1.1" xmlns="http://www.w3.org/2000/svg"><g>
<line x1="10" y1="10" x2="30" y2="10"/>
<line x1="10" y1="10" x2="15" y2="5"/>
<line x1="15" y1="10" x2="20" y2="5"/>
<line x1="20" y1="10" x2="25" y2="5"/>
<line x1="25" y1="10" x2="30" y2="5"/>
<line x1="30" y1="10" x2="35" y2="5"/>
<line x1="30" y1="10" x2="50" y2="10"/>
<line x1="30" y1="10" x2="25" y2="15"/>
<line x1="35" y1="10" x2="30" y2="15"/>
<line x1="40" y1="10" x2="35" y2="15"/>
<line x1="45" y1="10" x2="40" y2="15"/>
<line x1="50" y1="10" x2="45" y2="15"/>
<line x1="20" y1="50" x2="40" y2="50"/>
<line x1="20" y1="50" x2="15" y2="55"/>
<line x1="25" y1="50" x2="20" y2="55"/>
<line x1="35" y1="50" x2="30" y2="55"/>
<line x1="40" y1="50" x2="35" y2="55"/>
<text x="24" y="58">т</text>
<line x1="10" y1="10" x2="10" y2="30"/>
<line x1="10" y1="10" x2="5" y2="15"/>
<line x1="10" y1="15" x2="5" y2="20"/>
<line x1="10" y1="20" x2="5" y2="25"/>
<line x1="10" y1="25" x2="5" y2="30"/>
<line x1="10" y1="30" x2="5" y2="35"/>
<line x1="10" y1="30" x2="10" y2="50"/>
<line x1="10" y1="30" x2="15" y2="25"/>
<line x1="10" y1="35" x2="15" y2="30"/>
<line x1="10" y1="40" x2="15" y2="35"/>
<line x1="10" y1="45" x2="15" y2="40"/>
<line x1="10" y1="50" x2="15" y2="45"/>
<line x1="20" y1="70" x2="25" y2="60"/>
<line x1="20" y1="80" x2="30" y2="60"/>
<line x1="25" y1="80" x2="35" y2="60"/>
<line x1="30" y1="80" x2="40" y2="60"/>
<line x1="35" y1="80" x2="40" y2="70"/>
<line x1="20" y1="30" x2="25" y2="20"/>
<line x1="20" y1="40" x2="30" y2="20"/>
<line x1="25" y1="40" x2="35" y2="20"/>
<line x1="30" y1="40" x2="40" y2="20"/>
<line x1="35" y1="40" x2="40" y2="30"/>
<line x1="20" y1="30" x2="25" y2="40"/>
<line x1="20" y1="20" x2="30" y2="40"/>
<line x1="25" y1="20" x2="35" y2="40"/>
<line x1="30" y1="20" x2="40" y2="40"/>
<line x1="35" y1="20" x2="40" y2="30"/>
<circle cx="70" cy="40" r="15" fill-opacity="0"/>
<circle cx="70" cy="40" r="2" fill-opacity="0"/>
<line x1="70" y1="40" x2="70" y2="10"/>
<line x1="95" y1="40" x2="125" y2="40"/>
<circle cx="110" cy="40" r="2" fill-opacity="0"/>
<line x1="110" y1="40" x2="110" y2="10"/>
<line x1="95" y1="40" x2="95" y2="70"/>
<line x1="125" y1="40" x2="125" y2="70"/>
<circle cx="30" cy="70" r="6"/>
<text x="27" y="76">т</text>
<path d="M 153,20 L 147,20 150,14 153,20 150,26 147,20" fill-opacity="0"/>
<path d="M 160,20 L 157,14 163,14 157,26 163,26 160,20" fill-opacity="0"/>
<path d="M 150,37 L 150,43 144,40 150,37 156,40 150,43" fill-opacity="0"/>
<path d="M 150,50 L 144,47 144,53 156,47 156,53 150,50" fill-opacity="0"/>
<line x1="25" y1="90" x2="45" y2="90"/>
<line x1="25" y1="90" x2="30" y2="85"/>
<line x1="30" y1="90" x2="35" y2="85"/>
<line x1="35" y1="90" x2="40" y2="85"/>
<line x1="40" y1="90" x2="45" y2="85"/>
<line x1="45" y1="90" x2="50" y2="85"/>
<line x1="20" y1="120" x2="50" y2="120"/>
<circle cx="35" cy="120" r="2" fill-opacity="0"/>
<line x1="35" y1="120" x2="35" y2="90"/>
<line x1="20" y1="120" x2="20" y2="150"/>
<line x1="50" y1="120" x2="50" y2="150"/>
<line x1="20" y1="120" x2="20" y2="150"/>
<line x1="50" y1="120" x2="50" y2="150"/>
<text x="35" y="98">2Ƒ</text>
<text x="5" y="143">1Ƒ</text>
<text x="50" y="143">1Ƒ</text>
<circle cx="20" cy="155" r="6"/>
<text x="17" y="161">т</text>
<circle cx="50" cy="155" r="6"/>
<text x="47" y="161">т</text>
<line x1="95" y1="90" x2="115" y2="90"/>
<line x1="95" y1="90" x2="100" y2="85"/>
<line x1="100" y1="90" x2="105" y2="85"/>
<line x1="105" y1="90" x2="110" y2="85"/>
<line x1="110" y1="90" x2="115" y2="85"/>
<line x1="115" y1="90" x2="120" y2="85"/>
<circle cx="105" cy="120" r="15" fill-opacity="0"/>
<circle cx="105" cy="120" r="2" fill-opacity="0"/>
<line x1="105" y1="120" x2="105" y2="90"/>
<line x1="90" y1="120" x2="90" y2="150"/>
<line x1="120" y1="120" x2="120" y2="150"/>
<text x="105" y="98">2Ƒ</text>
<text x="75" y="143">1Ƒ</text>
<text x="120" y="143">1Ƒ</text>
<circle cx="90" cy="155" r="6"/>
<text x="87" y="161">т</text>
<circle cx="120" cy="155" r="6"/>
<text x="117" y="161">т</text>
</g></svg>
