<?xml version="1.0" encoding="UTF-8" standalone="no"?>
<!-- Затерянный мир 13-31 -->
<?xml-stylesheet type="text/css" href="svg.css"?>
<svg x="0" y="10" width="450" height="170" baseProfile="full" version="1.1" xmlns="http://www.w3.org/2000/svg"><g>
<line x1="30" y1="10" x2="50" y2="10"/>
<line x1="30" y1="10" x2="35" y2="5"/>
<line x1="35" y1="10" x2="40" y2="5"/>
<line x1="40" y1="10" x2="45" y2="5"/>
<line x1="45" y1="10" x2="50" y2="5"/>
<line x1="50" y1="10" x2="55" y2="5"/>
<line x1="40" y1="10" x2="40" y2="55"/>
<path d="M 40,25 L 37,19 43,19 37,31 43,31 40,25" fill-opacity="0"/>
<text x="25" y="31">1Ƒ</text>
<circle cx="40" cy="55" r="15" fill-opacity="0"/>
<circle cx="40" cy="55" r="2" fill-opacity="0"/>
<line x1="25" y1="55" x2="25" y2="110"/>
<path d="M 25,85 L 22,79 28,79 22,91 28,91 25,85" fill-opacity="0"/>
<text x="10" y="91">1Ƒ</text>
<circle cx="25" cy="110" r="6"/>
<text x="22" y="116">т</text>
<path d="M 25,135 L 22,129 28,129 22,141 28,141 25,135" fill-opacity="0"/>
<text x="10" y="141">1Ƒ</text>
<line x1="15" y1="160" x2="35" y2="160"/>
<line x1="15" y1="160" x2="10" y2="165"/>
<line x1="20" y1="160" x2="15" y2="165"/>
<line x1="30" y1="160" x2="25" y2="165"/>
<line x1="35" y1="160" x2="30" y2="165"/>
<text x="19" y="168">т</text>
<line x1="85" y1="10" x2="105" y2="10"/>
<line x1="85" y1="10" x2="90" y2="5"/>
<line x1="90" y1="10" x2="95" y2="5"/>
<line x1="95" y1="10" x2="100" y2="5"/>
<line x1="100" y1="10" x2="105" y2="5"/>
<line x1="105" y1="10" x2="110" y2="5"/>
<line x1="95" y1="10" x2="95" y2="60"/>
<path d="M 95,25 L 92,19 98,19 92,31 98,31 95,25" fill-opacity="0"/>
<text x="80" y="31">1Ƒ</text>
<circle cx="95" cy="60" r="20" fill-opacity="0"/>
<circle cx="95" cy="60" r="2" fill-opacity="0"/>
<line x1="115" y1="60" x2="115" y2="110"/>
<path d="M 115,85 L 112,79 118,79 112,91 118,91 115,85" fill-opacity="0"/>
<text x="100" y="91">1Ƒ</text>
<circle cx="115" cy="110" r="6"/>
<text x="112" y="116">т</text>
<path d="M 115,135 L 112,129 118,129 112,141 118,141 115,135" fill-opacity="0"/>
<text x="100" y="141">1Ƒ</text>
<line x1="105" y1="160" x2="125" y2="160"/>
<line x1="105" y1="160" x2="100" y2="165"/>
<line x1="110" y1="160" x2="105" y2="165"/>
<line x1="120" y1="160" x2="115" y2="165"/>
<line x1="125" y1="160" x2="120" y2="165"/>
<text x="109" y="168">т</text>
<line x1="40" y1="40" x2="95" y2="40"/>
<path d="M 65,37 L 65,43 59,40 65,37 71,40 65,43" fill-opacity="0"/>
<text x="60" y="38">1Ƒ</text>
<circle cx="210" cy="60" r="15" fill-opacity="0"/>
<circle cx="210" cy="60" r="2" fill-opacity="0"/>
<line x1="195" y1="60" x2="195" y2="115"/>
<path d="M 195,90 L 192,84 198,84 192,96 198,96 195,90" fill-opacity="0"/>
<text x="180" y="96">1Ƒ</text>
<circle cx="195" cy="115" r="6"/>
<text x="192" y="121">т</text>
<path d="M 195,140 L 192,134 198,134 192,146 198,146 195,140" fill-opacity="0"/>
<text x="180" y="146">1Ƒ</text>
<line x1="185" y1="160" x2="205" y2="160"/>
<line x1="185" y1="160" x2="180" y2="165"/>
<line x1="190" y1="160" x2="185" y2="165"/>
<line x1="200" y1="160" x2="195" y2="165"/>
<line x1="205" y1="160" x2="200" y2="165"/>
<text x="189" y="168">т</text>
<circle cx="310" cy="60" r="20" fill-opacity="0"/>
<circle cx="310" cy="60" r="2" fill-opacity="0"/>
<line x1="330" y1="60" x2="330" y2="110"/>
<path d="M 330,85 L 327,79 333,79 327,91 333,91 330,85" fill-opacity="0"/>
<text x="315" y="91">1Ƒ</text>
<circle cx="330" cy="110" r="6"/>
<text x="327" y="116">т</text>
<path d="M 330,135 L 327,129 333,129 327,141 333,141 330,135" fill-opacity="0"/>
<text x="315" y="141">1Ƒ</text>
<line x1="320" y1="160" x2="340" y2="160"/>
<line x1="320" y1="160" x2="315" y2="165"/>
<line x1="325" y1="160" x2="320" y2="165"/>
<line x1="335" y1="160" x2="330" y2="165"/>
<line x1="340" y1="160" x2="335" y2="165"/>
<text x="324" y="168">т</text>
<line x1="210" y1="45" x2="310" y2="40"/>
<path d="M 240,40 L 240,46 234,43 240,40 246,43 240,46" fill-opacity="0"/>
<text x="235" y="41">1Ƒ</text>
<line x1="210" y1="60" x2="310" y2="60"/>
<line x1="260" y1="60" x2="260" y2="160"/>
<path d="M 263,90 L 257,90 260,84 263,90 260,96 257,90" fill-opacity="0"/>
<text x="244" y="96">2Ƒ</text>
<line x1="250" y1="160" x2="270" y2="160"/>
<line x1="250" y1="160" x2="245" y2="165"/>
<line x1="255" y1="160" x2="250" y2="165"/>
<line x1="260" y1="160" x2="255" y2="165"/>
<line x1="265" y1="160" x2="260" y2="165"/>
<line x1="270" y1="160" x2="265" y2="165"/>
<path d="M 240,60 L 234,57 234,63 246,57 246,63 240,60" fill-opacity="0"/>
<text x="235" y="76">1Ƒ</text>
</g></svg>
