<?xml version="1.0" encoding="UTF-8" standalone="no"?>
<!-- Затерянный мир 13-31 -->
<?xml-stylesheet type="text/css" href="svg.css"?>
<svg x="0" y="10" width="450" height="120" baseProfile="full" version="1.1" xmlns="http://www.w3.org/2000/svg"><g>
<line x1="45" y1="10" x2="65" y2="10"/>
<line x1="45" y1="10" x2="50" y2="5"/>
<line x1="50" y1="10" x2="55" y2="5"/>
<line x1="55" y1="10" x2="60" y2="5"/>
<line x1="60" y1="10" x2="65" y2="5"/>
<line x1="65" y1="10" x2="70" y2="5"/>
<line x1="45" y1="110" x2="65" y2="110"/>
<line x1="45" y1="110" x2="40" y2="115"/>
<line x1="50" y1="110" x2="45" y2="115"/>
<line x1="55" y1="110" x2="50" y2="115"/>
<line x1="60" y1="110" x2="55" y2="115"/>
<line x1="65" y1="110" x2="60" y2="115"/>
<line x1="10" y1="50" x2="10" y2="70"/>
<line x1="10" y1="50" x2="5" y2="55"/>
<line x1="10" y1="55" x2="5" y2="60"/>
<line x1="10" y1="60" x2="5" y2="65"/>
<line x1="10" y1="65" x2="5" y2="70"/>
<line x1="10" y1="70" x2="5" y2="75"/>
<line x1="100" y1="50" x2="100" y2="70"/>
<line x1="100" y1="50" x2="105" y2="45"/>
<line x1="100" y1="55" x2="105" y2="50"/>
<line x1="100" y1="60" x2="105" y2="55"/>
<line x1="100" y1="65" x2="105" y2="60"/>
<line x1="100" y1="70" x2="105" y2="65"/>
<line x1="45" y1="60" x2="50" y2="50"/>
<line x1="45" y1="70" x2="55" y2="50"/>
<line x1="50" y1="70" x2="60" y2="50"/>
<line x1="55" y1="70" x2="65" y2="50"/>
<line x1="60" y1="70" x2="65" y2="60"/>
<rect x="10" y="10" width="90" height="100" fill-opacity="0"/>
<line x1="185" y1="10" x2="205" y2="10"/>
<line x1="185" y1="10" x2="190" y2="5"/>
<line x1="190" y1="10" x2="195" y2="5"/>
<line x1="195" y1="10" x2="200" y2="5"/>
<line x1="200" y1="10" x2="205" y2="5"/>
<line x1="205" y1="10" x2="210" y2="5"/>
<line x1="185" y1="110" x2="205" y2="110"/>
<line x1="185" y1="110" x2="180" y2="115"/>
<line x1="190" y1="110" x2="185" y2="115"/>
<line x1="195" y1="110" x2="190" y2="115"/>
<line x1="200" y1="110" x2="195" y2="115"/>
<line x1="205" y1="110" x2="200" y2="115"/>
<line x1="150" y1="50" x2="150" y2="70"/>
<line x1="150" y1="50" x2="145" y2="55"/>
<line x1="150" y1="55" x2="145" y2="60"/>
<line x1="150" y1="60" x2="145" y2="65"/>
<line x1="150" y1="65" x2="145" y2="70"/>
<line x1="150" y1="70" x2="145" y2="75"/>
<line x1="240" y1="50" x2="240" y2="70"/>
<line x1="240" y1="50" x2="245" y2="45"/>
<line x1="240" y1="55" x2="245" y2="50"/>
<line x1="240" y1="60" x2="245" y2="55"/>
<line x1="240" y1="65" x2="245" y2="60"/>
<line x1="240" y1="70" x2="245" y2="65"/>
<line x1="185" y1="60" x2="190" y2="50"/>
<line x1="185" y1="70" x2="195" y2="50"/>
<line x1="190" y1="70" x2="200" y2="50"/>
<line x1="195" y1="70" x2="205" y2="50"/>
<line x1="200" y1="70" x2="205" y2="60"/>
</g></svg>
