<?xml version="1.0" encoding="UTF-8" standalone="no"?>
<!-- Затерянный мир 13-31 -->
<?xml-stylesheet type="text/css" href="svg.css"?>
<svg x="0" y="10" width="450" height="145" baseProfile="full" version="1.1" xmlns="http://www.w3.org/2000/svg"><g>
<line x1="20" y1="10" x2="40" y2="10"/>
<line x1="20" y1="10" x2="25" y2="5"/>
<line x1="25" y1="10" x2="30" y2="5"/>
<line x1="30" y1="10" x2="35" y2="5"/>
<line x1="35" y1="10" x2="40" y2="5"/>
<line x1="40" y1="10" x2="45" y2="5"/>
<circle cx="30" cy="40" r="15" fill-opacity="0"/>
<circle cx="30" cy="40" r="2" fill-opacity="0"/>
<line x1="30" y1="40" x2="30" y2="10"/>
<line x1="15" y1="40" x2="15" y2="70"/>
<line x1="45" y1="40" x2="45" y2="70"/>
<text x="30" y="18">4Ƒ</text>
<text x="0" y="63">2Ƒ</text>
<text x="45" y="63">2Ƒ</text>
<circle cx="15" cy="75" r="6"/>
<line x1="30" y1="100" x2="60" y2="100"/>
<circle cx="45" cy="100" r="2" fill-opacity="0"/>
<line x1="45" y1="100" x2="45" y2="70"/>
<line x1="30" y1="100" x2="30" y2="130"/>
<line x1="60" y1="100" x2="60" y2="130"/>
<line x1="30" y1="100" x2="30" y2="130"/>
<line x1="60" y1="100" x2="60" y2="130"/>
<text x="15" y="123">1Ƒ</text>
<text x="60" y="123">1Ƒ</text>
<circle cx="30" cy="135" r="6"/>
<circle cx="60" cy="135" r="6"/>
</g></svg>
