<?xml version="1.0" encoding="UTF-8" standalone="no"?>
<!-- Затерянный мир 13-31 -->
<?xml-stylesheet type="text/css" href="svg.css"?>
<svg x="0" y="10" width="450" height="200" baseProfile="full" version="1.1" xmlns="http://www.w3.org/2000/svg"><g>
<line x1="30" y1="10" x2="50" y2="10"/>
<line x1="30" y1="10" x2="35" y2="5"/>
<line x1="35" y1="10" x2="40" y2="5"/>
<line x1="40" y1="10" x2="45" y2="5"/>
<line x1="45" y1="10" x2="50" y2="5"/>
<line x1="50" y1="10" x2="55" y2="5"/>
<line x1="40" y1="10" x2="40" y2="60"/>
<path d="M 40,25 L 37,19 43,19 37,31 43,31 40,25" fill-opacity="0"/>
<text x="25" y="31">1Ƒ</text>
<circle cx="40" cy="60" r="20" fill-opacity="0"/>
<circle cx="40" cy="60" r="2" fill-opacity="0"/>
<line x1="20" y1="60" x2="20" y2="110"/>
<path d="M 20,85 L 17,79 23,79 17,91 23,91 20,85" fill-opacity="0"/>
<text x="5" y="91">1Ƒ</text>
<circle cx="20" cy="115" r="6"/>
<text x="17" y="121">т</text>
<path d="M 20,145 L 17,139 23,139 17,151 23,151 20,145" fill-opacity="0"/>
<text x="5" y="151">1Ƒ</text>
<line x1="10" y1="160" x2="30" y2="160"/>
<line x1="10" y1="160" x2="5" y2="165"/>
<line x1="15" y1="160" x2="10" y2="165"/>
<line x1="25" y1="160" x2="20" y2="165"/>
<line x1="30" y1="160" x2="25" y2="165"/>
<text x="14" y="168">т</text>
<line x1="60" y1="60" x2="60" y2="110"/>
<path d="M 60,85 L 57,79 63,79 57,91 63,91 60,85" fill-opacity="0"/>
<text x="45" y="91">1Ƒ</text>
<circle cx="60" cy="115" r="6"/>
<text x="57" y="121">т</text>
<path d="M 60,145 L 57,139 63,139 57,151 63,151 60,145" fill-opacity="0"/>
<text x="45" y="151">1Ƒ</text>
<line x1="50" y1="160" x2="70" y2="160"/>
<line x1="50" y1="160" x2="45" y2="165"/>
<line x1="55" y1="160" x2="50" y2="165"/>
<line x1="65" y1="160" x2="60" y2="165"/>
<line x1="70" y1="160" x2="65" y2="165"/>
<text x="54" y="168">т</text>
<line x1="120" y1="10" x2="140" y2="10"/>
<line x1="120" y1="10" x2="125" y2="5"/>
<line x1="125" y1="10" x2="130" y2="5"/>
<line x1="130" y1="10" x2="135" y2="5"/>
<line x1="135" y1="10" x2="140" y2="5"/>
<line x1="140" y1="10" x2="145" y2="5"/>
<line x1="130" y1="10" x2="130" y2="60"/>
<path d="M 130,25 L 127,19 133,19 127,31 133,31 130,25" fill-opacity="0"/>
<text x="115" y="31">1Ƒ</text>
<circle cx="130" cy="60" r="20" fill-opacity="0"/>
<circle cx="130" cy="60" r="2" fill-opacity="0"/>
<line x1="110" y1="60" x2="110" y2="110"/>
<path d="M 110,85 L 107,79 113,79 107,91 113,91 110,85" fill-opacity="0"/>
<text x="95" y="91">1Ƒ</text>
<circle cx="110" cy="110" r="6"/>
<text x="107" y="116">т</text>
<path d="M 110,145 L 107,139 113,139 107,151 113,151 110,145" fill-opacity="0"/>
<text x="95" y="151">1Ƒ</text>
<line x1="100" y1="160" x2="120" y2="160"/>
<line x1="100" y1="160" x2="95" y2="165"/>
<line x1="105" y1="160" x2="100" y2="165"/>
<line x1="115" y1="160" x2="110" y2="165"/>
<line x1="120" y1="160" x2="115" y2="165"/>
<text x="104" y="168">т</text>
<line x1="150" y1="60" x2="150" y2="120"/>
<path d="M 150,85 L 147,79 153,79 147,91 153,91 150,85" fill-opacity="0"/>
<text x="135" y="91">1Ƒ</text>
<circle cx="150" cy="120" r="6"/>
<text x="147" y="126">т</text>
<path d="M 150,145 L 147,139 153,139 147,151 153,151 150,145" fill-opacity="0"/>
<text x="135" y="151">1Ƒ</text>
<line x1="140" y1="160" x2="160" y2="160"/>
<line x1="140" y1="160" x2="135" y2="165"/>
<line x1="145" y1="160" x2="140" y2="165"/>
<line x1="155" y1="160" x2="150" y2="165"/>
<line x1="160" y1="160" x2="155" y2="165"/>
<text x="144" y="168">т</text>
</g></svg>
