<?xml version="1.0" encoding="UTF-8" standalone="no"?>
<!-- Затерянный мир 13-31 -->
<?xml-stylesheet type="text/css" href="svg.css"?>
<svg x="0" y="10" width="200" height="135" baseProfile="full" version="1.1" xmlns="http://www.w3.org/2000/svg"><g>
<line x1="31" y1="21" x2="161" y2="21"/>
<path d="M 61,21 L 55,18 55,24 67,18 67,24 61,21 Z" />
<text x="56" y="13">1Ƒ</text>
<circle cx="76" cy="21" r="2"/>
<circle cx="106" cy="21" r="2"/>
<rect x="76" y="10" width="30" height="20"  fill="lightgray"/>
<text x="87" y="27">т</text>
<path d="M 131,21 L 125,18 125,24 137,18 137,24 131,21 Z" />
<text x="126" y="13">1Ƒ</text>
<line x1="31" y1="31" x2="161" y2="31"/>
<path d="M 55,31 L 61,28 67,31 61,34 55,31 Z" />
<line x1="61" y1="28" x2="61" y2="34"/>
<text x="56" y="43">1Ƒ</text>
<line x1="46" y1="31" x2="46" y2="126"/>
<path d="M 43,31 L 46,35 49,31 43,31"  fill="black"/>
<path d="M 43,126 L 46,122 49,126 43,126"  fill="black"/>
<path d="M 43,56 L 46,50 49,56 46,62 43,56 Z" />
<line x1="43" y1="56" x2="49" y2="56"/>
<text x="50" y="58">1Ƒ+xƑ</text>
<line x1="36" y1="126" x2="56" y2="126"/>
<line x1="36" y1="126" x2="31" y2="131"/>
<line x1="41" y1="126" x2="36" y2="131"/>
<line x1="46" y1="126" x2="41" y2="131"/>
<line x1="51" y1="126" x2="46" y2="131"/>
<line x1="56" y1="126" x2="51" y2="131"/>
<line x1="146" y1="31" x2="146" y2="126"/>
<path d="M 143,31 L 146,35 149,31 143,31"  fill="black"/>
<path d="M 143,126 L 146,122 149,126 143,126"  fill="black"/>
<path d="M 143,56 L 146,50 149,56 146,62 143,56 Z" />
<line x1="143" y1="56" x2="149" y2="56"/>
<text x="116" y="58">1Ƒ+xƑ</text>
<line x1="136" y1="126" x2="156" y2="126"/>
<line x1="136" y1="126" x2="131" y2="131"/>
<line x1="141" y1="126" x2="136" y2="131"/>
<line x1="146" y1="126" x2="141" y2="131"/>
<line x1="151" y1="126" x2="146" y2="131"/>
<line x1="156" y1="126" x2="151" y2="131"/>
<path d="M 91,106 L 88,100 94,100 88,112 94,112 91,106 Z" />
<text x="71" y="108">2xƑ</text>
<line x1="81" y1="126" x2="101" y2="126"/>
<line x1="81" y1="126" x2="76" y2="131"/>
<line x1="86" y1="126" x2="81" y2="131"/>
<line x1="96" y1="126" x2="91" y2="131"/>
<line x1="101" y1="126" x2="96" y2="131"/>
<text x="87" y="132">т</text>
<circle cx="31" cy="31" r="10" fill-opacity="0"/>
<circle cx="31" cy="31" r="2" fill-opacity="0"/>
<line x1="21" y1="31" x2="21" y2="76"/>
<path d="M 21,56 L 18,50 24,50 18,62 24,62 21,56 Z" />
<text x="6" y="58">1Ƒ</text>
<circle cx="21" cy="75" r="2"/>
<circle cx="21" cy="81" r="6"  fill="lightgray"/>
<text x="19" y="83">т</text>
<path d="M 21,106 L 18,100 24,100 18,112 24,112 21,106 Z" />
<text x="6" y="108">1Ƒ</text>
<line x1="11" y1="126" x2="31" y2="126"/>
<line x1="11" y1="126" x2="6" y2="131"/>
<line x1="16" y1="126" x2="11" y2="131"/>
<line x1="26" y1="126" x2="21" y2="131"/>
<line x1="31" y1="126" x2="26" y2="131"/>
<text x="17" y="132">т</text>
<circle cx="161" cy="31" r="10" fill-opacity="0"/>
<circle cx="161" cy="31" r="2" fill-opacity="0"/>
<line x1="171" y1="31" x2="171" y2="76"/>
<path d="M 171,56 L 168,50 174,50 168,62 174,62 171,56 Z" />
<text x="156" y="58">1Ƒ</text>
<circle cx="171" cy="75" r="2"/>
<circle cx="171" cy="81" r="6"  fill="lightgray"/>
<text x="169" y="83">т</text>
<path d="M 171,106 L 168,100 174,100 168,112 174,112 171,106 Z" />
<text x="156" y="108">1Ƒ</text>
<line x1="161" y1="126" x2="181" y2="126"/>
<line x1="161" y1="126" x2="156" y2="131"/>
<line x1="166" y1="126" x2="161" y2="131"/>
<line x1="176" y1="126" x2="171" y2="131"/>
<line x1="181" y1="126" x2="176" y2="131"/>
<text x="167" y="132">т</text>
</g></svg>
