<?xml version="1.0" encoding="UTF-8" standalone="no"?>
<!-- Затерянный мир 13-31 -->
<?xml-stylesheet type="text/css" href="svg.css"?>
<svg x="0" y="10" width="450" height="160" baseProfile="full" version="1.1" xmlns="http://www.w3.org/2000/svg"><g>
<line x1="30" y1="10" x2="50" y2="10"/>
<line x1="30" y1="10" x2="35" y2="5"/>
<line x1="35" y1="10" x2="40" y2="5"/>
<line x1="40" y1="10" x2="45" y2="5"/>
<line x1="45" y1="10" x2="50" y2="5"/>
<line x1="50" y1="10" x2="55" y2="5"/>
<line x1="40" y1="10" x2="40" y2="50"/>
<path d="M 40,25 L 37,19 43,19 37,31 43,31 40,25" fill-opacity="0"/>
<text x="25" y="31">2Ƒ</text>
<circle cx="40" cy="50" r="2" fill-opacity="0"/>
<line x1="15" y1="50" x2="65" y2="50"/>
<line x1="15" y1="50" x2="15" y2="90"/>
<path d="M 15,70 L 12,64 18,64 12,76 18,76 15,70" fill-opacity="0"/>
<text x="0" y="76">1Ƒ</text>
<circle cx="15" cy="90" r="6"/>
<text x="12" y="96">т</text>
<path d="M 15,130 L 12,124 18,124 12,136 18,136 15,130" fill-opacity="0"/>
<text x="0" y="136">1Ƒ</text>
<line x1="5" y1="150" x2="25" y2="150"/>
<line x1="5" y1="150" x2="0" y2="155"/>
<line x1="10" y1="150" x2="5" y2="155"/>
<line x1="20" y1="150" x2="15" y2="155"/>
<line x1="25" y1="150" x2="20" y2="155"/>
<text x="9" y="158">т</text>
<line x1="65" y1="50" x2="65" y2="90"/>
<path d="M 65,70 L 62,64 68,64 62,76 68,76 65,70" fill-opacity="0"/>
<text x="50" y="76">1Ƒ</text>
<circle cx="65" cy="90" r="6"/>
<text x="62" y="96">т</text>
<path d="M 65,130 L 62,124 68,124 62,136 68,136 65,130" fill-opacity="0"/>
<text x="50" y="136">1Ƒ</text>
<line x1="55" y1="150" x2="75" y2="150"/>
<line x1="55" y1="150" x2="50" y2="155"/>
<line x1="60" y1="150" x2="55" y2="155"/>
<line x1="70" y1="150" x2="65" y2="155"/>
<line x1="75" y1="150" x2="70" y2="155"/>
<text x="59" y="158">т</text>
<line x1="120" y1="10" x2="140" y2="10"/>
<line x1="120" y1="10" x2="125" y2="5"/>
<line x1="125" y1="10" x2="130" y2="5"/>
<line x1="130" y1="10" x2="135" y2="5"/>
<line x1="135" y1="10" x2="140" y2="5"/>
<line x1="140" y1="10" x2="145" y2="5"/>
<line x1="130" y1="10" x2="130" y2="50"/>
<path d="M 130,25 L 127,19 133,19 127,31 133,31 130,25" fill-opacity="0"/>
<text x="115" y="31">2Ƒ</text>
<circle cx="130" cy="50" r="2" fill-opacity="0"/>
<line x1="110" y1="35" x2="150" y2="65"/>
<line x1="110" y1="35" x2="110" y2="75"/>
<path d="M 110,55 L 107,49 113,49 107,61 113,61 110,55" fill-opacity="0"/>
<text x="95" y="61">1Ƒ</text>
<circle cx="110" cy="80" r="6"/>
<text x="107" y="86">т</text>
<path d="M 110,130 L 107,124 113,124 107,136 113,136 110,130" fill-opacity="0"/>
<text x="95" y="136">1Ƒ</text>
<line x1="100" y1="150" x2="120" y2="150"/>
<line x1="100" y1="150" x2="95" y2="155"/>
<line x1="105" y1="150" x2="100" y2="155"/>
<line x1="115" y1="150" x2="110" y2="155"/>
<line x1="120" y1="150" x2="115" y2="155"/>
<text x="104" y="158">т</text>
<line x1="150" y1="65" x2="150" y2="105"/>
<path d="M 150,85 L 147,79 153,79 147,91 153,91 150,85" fill-opacity="0"/>
<text x="135" y="91">1Ƒ</text>
<circle cx="150" cy="110" r="6"/>
<text x="147" y="116">т</text>
<path d="M 150,130 L 147,124 153,124 147,136 153,136 150,130" fill-opacity="0"/>
<text x="135" y="136">1Ƒ</text>
<line x1="140" y1="150" x2="160" y2="150"/>
<line x1="140" y1="150" x2="135" y2="155"/>
<line x1="145" y1="150" x2="140" y2="155"/>
<line x1="155" y1="150" x2="150" y2="155"/>
<line x1="160" y1="150" x2="155" y2="155"/>
<text x="144" y="158">т</text>
</g></svg>
