<?xml version="1.0" encoding="UTF-8" standalone="no"?>
<!-- Затерянный мир 13-31 -->
<?xml-stylesheet type="text/css" href="svg.css"?>
<svg x="0" y="10" width="450" height="120" baseProfile="full" version="1.1" xmlns="http://www.w3.org/2000/svg"><g>
<line x1="30" y1="10" x2="50" y2="10"/>
<line x1="30" y1="10" x2="35" y2="5"/>
<line x1="35" y1="10" x2="40" y2="5"/>
<line x1="40" y1="10" x2="45" y2="5"/>
<line x1="45" y1="10" x2="50" y2="5"/>
<line x1="50" y1="10" x2="55" y2="5"/>
<circle cx="40" cy="40" r="15" fill-opacity="0"/>
<circle cx="40" cy="40" r="2" fill-opacity="0"/>
<line x1="40" y1="40" x2="40" y2="10"/>
<text x="23" y="18">1Ƒ</text>
<line x1="25" y1="40" x2="25" y2="70"/>
<circle cx="25" cy="70" r="6"/>
<text x="8" y="58">1Ƒ</text>
<line x1="80" y1="10" x2="100" y2="10"/>
<line x1="80" y1="10" x2="85" y2="5"/>
<line x1="85" y1="10" x2="90" y2="5"/>
<line x1="90" y1="10" x2="95" y2="5"/>
<line x1="95" y1="10" x2="100" y2="5"/>
<line x1="100" y1="10" x2="105" y2="5"/>
<circle cx="90" cy="40" r="15" fill-opacity="0"/>
<circle cx="90" cy="40" r="2" fill-opacity="0"/>
<line x1="90" y1="40" x2="90" y2="10"/>
<text x="90" y="18">1Ƒ</text>
<line x1="105" y1="40" x2="105" y2="70"/>
<circle cx="105" cy="70" r="6"/>
<text x="105" y="58">1Ƒ</text>
<line x1="40" y1="25" x2="90" y2="25"/>
<line x1="170" y1="10" x2="190" y2="10"/>
<line x1="170" y1="10" x2="175" y2="5"/>
<line x1="175" y1="10" x2="180" y2="5"/>
<line x1="180" y1="10" x2="185" y2="5"/>
<line x1="185" y1="10" x2="190" y2="5"/>
<line x1="190" y1="10" x2="195" y2="5"/>
<circle cx="180" cy="70" r="15" fill-opacity="0"/>
<circle cx="180" cy="70" r="2" fill-opacity="0"/>
<line x1="180" y1="70" x2="180" y2="10"/>
<text x="154" y="18">1−xƑ</text>
<line x1="165" y1="70" x2="165" y2="100"/>
<circle cx="165" cy="100" r="6"/>
<text x="148" y="88">1Ƒ</text>
<line x1="220" y1="10" x2="240" y2="10"/>
<line x1="220" y1="10" x2="225" y2="5"/>
<line x1="225" y1="10" x2="230" y2="5"/>
<line x1="230" y1="10" x2="235" y2="5"/>
<line x1="235" y1="10" x2="240" y2="5"/>
<line x1="240" y1="10" x2="245" y2="5"/>
<circle cx="230" cy="40" r="15" fill-opacity="0"/>
<circle cx="230" cy="40" r="2" fill-opacity="0"/>
<line x1="230" y1="40" x2="230" y2="10"/>
<text x="230" y="18">1+xƑ</text>
<line x1="245" y1="40" x2="245" y2="100"/>
<circle cx="245" cy="100" r="6"/>
<text x="245" y="88">1Ƒ</text>
<line x1="174" y1="56" x2="224" y2="26"/>
<line x1="310" y1="10" x2="330" y2="10"/>
<line x1="310" y1="10" x2="315" y2="5"/>
<line x1="315" y1="10" x2="320" y2="5"/>
<line x1="320" y1="10" x2="325" y2="5"/>
<line x1="325" y1="10" x2="330" y2="5"/>
<line x1="330" y1="10" x2="335" y2="5"/>
<circle cx="320" cy="80" r="15" fill-opacity="0"/>
<circle cx="320" cy="80" r="2" fill-opacity="0"/>
<line x1="320" y1="80" x2="320" y2="10"/>
<text x="298" y="18">0.1Ƒ</text>
<line x1="305" y1="80" x2="305" y2="110"/>
<circle cx="305" cy="110" r="6"/>
<text x="288" y="98">1Ƒ</text>
<circle cx="325" cy="40" r="15" fill-opacity="0"/>
<circle cx="325" cy="40" r="2" fill-opacity="0"/>
<line x1="325" y1="40" x2="325" y2="10"/>
<text x="325" y="18">1.9Ƒ</text>
<line x1="340" y1="40" x2="340" y2="110"/>
<circle cx="340" cy="110" r="6"/>
<text x="340" y="98">1Ƒ</text>
<line x1="305" y1="80" x2="310" y2="40"/>
<line x1="390" y1="10" x2="410" y2="10"/>
<line x1="390" y1="10" x2="395" y2="5"/>
<line x1="395" y1="10" x2="400" y2="5"/>
<line x1="400" y1="10" x2="405" y2="5"/>
<line x1="405" y1="10" x2="410" y2="5"/>
<line x1="410" y1="10" x2="415" y2="5"/>
<circle cx="400" cy="60" r="15" fill-opacity="0"/>
<circle cx="400" cy="60" r="2" fill-opacity="0"/>
<line x1="400" y1="60" x2="400" y2="10"/>
<text x="386" y="18">0Ƒ</text>
<line x1="415" y1="60" x2="415" y2="100"/>
<circle cx="415" cy="100" r="6"/>
<text x="415" y="88">1Ƒ</text>
<line x1="405" y1="20" x2="425" y2="20"/>
<line x1="405" y1="20" x2="410" y2="15"/>
<line x1="410" y1="20" x2="415" y2="15"/>
<line x1="415" y1="20" x2="420" y2="15"/>
<line x1="420" y1="20" x2="425" y2="15"/>
<line x1="425" y1="20" x2="430" y2="15"/>
<line x1="415" y1="60" x2="415" y2="20"/>
<text x="415" y="28">1Ƒ</text>
</g></svg>
