<?xml version="1.0" encoding="UTF-8" standalone="no"?>
<!-- Затерянный мир 13-31 -->
<?xml-stylesheet type="text/css" href="svg.css"?>
<svg x="0" y="10" width="450" height="120" baseProfile="full" version="1.1" xmlns="http://www.w3.org/2000/svg"><g>
<line x1="50" y1="60" x2="55" y2="50"/>
<line x1="50" y1="70" x2="60" y2="50"/>
<line x1="55" y1="70" x2="65" y2="50"/>
<line x1="60" y1="70" x2="70" y2="50"/>
<line x1="65" y1="70" x2="70" y2="60"/>
<line x1="50" y1="60" x2="55" y2="70"/>
<line x1="50" y1="50" x2="60" y2="70"/>
<line x1="55" y1="50" x2="65" y2="70"/>
<line x1="60" y1="50" x2="70" y2="70"/>
<line x1="65" y1="50" x2="70" y2="60"/>
<line x1="15" y1="15" x2="20" y2="5"/>
<line x1="15" y1="25" x2="25" y2="5"/>
<line x1="20" y1="25" x2="30" y2="5"/>
<line x1="25" y1="25" x2="35" y2="5"/>
<line x1="30" y1="25" x2="35" y2="15"/>
<line x1="15" y1="15" x2="20" y2="25"/>
<line x1="15" y1="5" x2="25" y2="25"/>
<line x1="20" y1="5" x2="30" y2="25"/>
<line x1="25" y1="5" x2="35" y2="25"/>
<line x1="30" y1="5" x2="35" y2="15"/>
<line x1="85" y1="15" x2="90" y2="5"/>
<line x1="85" y1="25" x2="95" y2="5"/>
<line x1="90" y1="25" x2="100" y2="5"/>
<line x1="95" y1="25" x2="105" y2="5"/>
<line x1="100" y1="25" x2="105" y2="15"/>
<line x1="85" y1="15" x2="90" y2="25"/>
<line x1="85" y1="5" x2="95" y2="25"/>
<line x1="90" y1="5" x2="100" y2="25"/>
<line x1="95" y1="5" x2="105" y2="25"/>
<line x1="100" y1="5" x2="105" y2="15"/>
<line x1="15" y1="105" x2="20" y2="95"/>
<line x1="15" y1="115" x2="25" y2="95"/>
<line x1="20" y1="115" x2="30" y2="95"/>
<line x1="25" y1="115" x2="35" y2="95"/>
<line x1="30" y1="115" x2="35" y2="105"/>
<line x1="15" y1="105" x2="20" y2="115"/>
<line x1="15" y1="95" x2="25" y2="115"/>
<line x1="20" y1="95" x2="30" y2="115"/>
<line x1="25" y1="95" x2="35" y2="115"/>
<line x1="30" y1="95" x2="35" y2="105"/>
<line x1="85" y1="105" x2="90" y2="95"/>
<line x1="85" y1="115" x2="95" y2="95"/>
<line x1="90" y1="115" x2="100" y2="95"/>
<line x1="95" y1="115" x2="105" y2="95"/>
<line x1="100" y1="115" x2="105" y2="105"/>
<line x1="85" y1="105" x2="90" y2="115"/>
<line x1="85" y1="95" x2="95" y2="115"/>
<line x1="90" y1="95" x2="100" y2="115"/>
<line x1="95" y1="95" x2="105" y2="115"/>
<line x1="100" y1="95" x2="105" y2="105"/>
<rect x="15" y="5" width="90" height="110" fill-opacity="0"/>
</g></svg>
