<?xml version="1.0" encoding="UTF-8" standalone="no"?>
<?xml-stylesheet type="text/css" href="svg0.css"?>
<!-- Затерянный мир 13-31 -->
<svg x="0" y="0" width="1440" height="900" baseProfile="full" version="1.1" xmlns="http://www.w3.org/2000/svg" xmlns:xlink="http://www.w3.org/1999/xlink">
<defs>
<g id="arrow" style="fill:none;stroke:#000000;stroke-width:5;stroke-opacity:1;stroke:red;">
  <path d="M 20,0 L 40,240 0,240 60,300 120,240 80,240 100,0" fill-opacity="0"/>
</g>
<g id="arrowbox" >
  <rect x="-420" y="-150" width="500" height="150" rx="25" ry="25" fill-opacity="0.8" fill="white" stroke="lightgrey"/>
</g>
</defs>
<g style="stroke:red;">

<g transform="translate(120 220) scale(0.5 0.5) rotate(168)">
<use xlink:href="#arrowbox"/>
<text style="font-family:Arial Unicode MS;font-size:30px;stroke-width:1px;stroke:hotpink;" transform="rotate(180)">
 <tspan x="-70" y="40">выдвигатель</tspan>
 <tspan x="-70" y="70">панели</tspan>
 <tspan x="-70" y="100">смены</tspan>
 <tspan x="-70" y="130">страниц</tspan>
</text>
<use xlink:href="#arrow" transform="scale(0.25 1.5)"/>
</g>

<g transform="translate(170 140) scale(0.5 0.5) rotate(-152)">
<use xlink:href="#arrowbox"/>
<text style="font-family:Arial Unicode MS;font-size:30px;stroke-width:1px;stroke:hotpink;" transform="rotate(180)">
 <tspan x="-70" y="40">выдвигатель</tspan>
 <tspan x="-70" y="70">меню скачивания</tspan>
 <tspan x="-70" y="100">и</tspan>
 <tspan x="-70" y="130">меню загрузки справки</tspan>
</text>
<use xlink:href="#arrow" transform="scale(0.25 1.032)"/>
</g>
<g transform="translate(170 140) scale(0.5 0.5) rotate(-128)">
<use xlink:href="#arrow" transform="scale(0.25 1.45)"/>
</g>

<g transform="translate(310 130) scale(0.5 0.5) rotate(-125)">
<use xlink:href="#arrowbox"/>
<text style="font-family:Arial Unicode MS;font-size:30px;stroke-width:1px;stroke:hotpink;" transform="rotate(180)">
 <tspan x="-70" y="40">выдвигатель</tspan>
 <tspan x="-70" y="70">панели</tspan>
 <tspan x="-70" y="100">загруженной</tspan>
 <tspan x="-70" y="130">справки</tspan>
</text>
<use xlink:href="#arrow" transform="scale(0.25 1.45)"/>
</g>
</g>
</svg>
